<svg xmlns:dc="http://purl.org/dc/elements/1.1/" xmlns:cc="http://creativecommons.org/ns#" xmlns:rdf="http://www.w3.org/1999/02/22-rdf-syntax-ns#" xmlns:svg="http://www.w3.org/2000/svg" xmlns="http://www.w3.org/2000/svg" xmlns:sodipodi="http://sodipodi.sourceforge.net/DTD/sodipodi-0.dtd" xmlns:inkscape="http://www.inkscape.org/namespaces/inkscape" version="1.1" x="0px" y="0px" viewBox="0 0 100 125"><g transform="translate(0,-952.36218)"><path style="text-indent:0;text-transform:none;direction:ltr;block-progression:tb;baseline-shift:baseline;color:#000000;enable-background:accumulate;" d="m 50,962.36217 c -22.0677,0 -40,17.93231 -40,40.00003 0,22.0677 17.9323,40 40,40 22.0677,0 40,-17.9323 40,-40 0,-22.06772 -17.9323,-40.00003 -40,-40.00003 z m 0,4 c 19.90594,0 36,16.09406 36,36.00003 0,6.7046 -1.84902,12.9733 -5.03125,18.3438 -1.60344,-4.1123 -4.89158,-7.7041 -9.15625,-10.4376 -5.7583,-3.6907 -13.39754,-5.9062 -21.8125,-5.9062 -8.41496,0 -16.0542,2.2155 -21.8125,5.9062 -4.26467,2.7335 -7.55281,6.3253 -9.15625,10.4376 C 15.84902,1015.3355 14,1009.0668 14,1002.3622 14,982.45623 30.09406,966.36217 50,966.36217 z m 0,5 c -7.70832,0 -14,6.2917 -14,14 0,7.7083 6.29168,14 14,14 7.70832,0 14,-6.2917 14,-14 0,-7.7083 -6.29168,-14 -14,-14 z m 0,4 c 5.54656,0 10,4.45346 10,10 0,5.54655 -4.45344,10 -10,10 -5.54656,0 -10,-4.45345 -10,-10 0,-5.54654 4.45344,-10 10,-10 z m 0,33.00003 c 7.70246,0 14.64424,2.0688 19.65625,5.2812 4.83092,3.0964 7.76985,7.1729 8.28125,11.4063 -6.59663,8.1191 -16.64291,13.3125 -27.9375,13.3125 -11.29459,0 -21.34087,-5.1934 -27.9375,-13.3125 0.51141,-4.2334 3.45034,-8.3099 8.28125,-11.4063 5.012,-3.2124 11.9538,-5.2812 19.65625,-5.2812 z" fill="#000000" fill-opacity="1" stroke="none" marker="none" visibility="visible" display="inline" overflow="visible"/></g><text x="0" y="115" fill="#000000" font-size="5px" font-weight="bold" font-family="'Helvetica Neue', Helvetica, Arial-Unicode, Arial, Sans-serif">Created by unlimicon</text><text x="0" y="120" fill="#000000" font-size="5px" font-weight="bold" font-family="'Helvetica Neue', Helvetica, Arial-Unicode, Arial, Sans-serif">from the Noun Project</text></svg>